<mxfile host="app.diagrams.net" modified="2022-12-10T16:18:40.598Z" agent="5.0 (Windows NT 10.0; Win64; x64) AppleWebKit/537.36 (KHTML, like Gecko) Chrome/107.0.0.0 Safari/537.36" etag="GLgVesfwZx6kBcKwMb6j" version="20.6.2" type="github">
  <diagram id="C5RBs43oDa-KdzZeNtuy" name="Page-1">
    <mxGraphModel dx="964" dy="543" grid="1" gridSize="10" guides="1" tooltips="1" connect="1" arrows="1" fold="1" page="1" pageScale="1" pageWidth="827" pageHeight="1169" math="0" shadow="0">
      <root>
        <mxCell id="WIyWlLk6GJQsqaUBKTNV-0" />
        <mxCell id="WIyWlLk6GJQsqaUBKTNV-1" parent="WIyWlLk6GJQsqaUBKTNV-0" />
        <mxCell id="WIyWlLk6GJQsqaUBKTNV-6" value="Dateipfad vorhanden und leer?" style="rhombus;whiteSpace=wrap;html=1;shadow=0;fontFamily=Helvetica;fontSize=12;align=center;strokeWidth=1;spacing=6;spacingTop=-4;" parent="WIyWlLk6GJQsqaUBKTNV-1" vertex="1">
          <mxGeometry x="170" y="90" width="100" height="80" as="geometry" />
        </mxCell>
        <mxCell id="WIyWlLk6GJQsqaUBKTNV-7" value="Speichern abbrechen" style="rounded=1;whiteSpace=wrap;html=1;fontSize=12;glass=0;strokeWidth=1;shadow=0;" parent="WIyWlLk6GJQsqaUBKTNV-1" vertex="1">
          <mxGeometry x="320" y="110" width="120" height="40" as="geometry" />
        </mxCell>
        <mxCell id="Fm7ijyQW3Yq9ilwutVbr-9" value="nein" style="edgeStyle=orthogonalEdgeStyle;rounded=0;orthogonalLoop=1;jettySize=auto;html=1;exitX=1;exitY=0.5;exitDx=0;exitDy=0;" edge="1" parent="WIyWlLk6GJQsqaUBKTNV-1" source="WIyWlLk6GJQsqaUBKTNV-10">
          <mxGeometry relative="1" as="geometry">
            <mxPoint x="490" y="495" as="targetPoint" />
          </mxGeometry>
        </mxCell>
        <mxCell id="Fm7ijyQW3Yq9ilwutVbr-21" value="ja" style="edgeStyle=orthogonalEdgeStyle;rounded=0;orthogonalLoop=1;jettySize=auto;html=1;exitX=0.5;exitY=1;exitDx=0;exitDy=0;entryX=0.5;entryY=0;entryDx=0;entryDy=0;" edge="1" parent="WIyWlLk6GJQsqaUBKTNV-1" source="WIyWlLk6GJQsqaUBKTNV-10" target="Fm7ijyQW3Yq9ilwutVbr-12">
          <mxGeometry relative="1" as="geometry" />
        </mxCell>
        <mxCell id="WIyWlLk6GJQsqaUBKTNV-10" value="Element noch nicht serialized?" style="rhombus;whiteSpace=wrap;html=1;shadow=0;fontFamily=Helvetica;fontSize=12;align=center;strokeWidth=1;spacing=6;spacingTop=-4;" parent="WIyWlLk6GJQsqaUBKTNV-1" vertex="1">
          <mxGeometry x="320" y="450" width="106" height="90" as="geometry" />
        </mxCell>
        <mxCell id="Fm7ijyQW3Yq9ilwutVbr-29" style="edgeStyle=orthogonalEdgeStyle;rounded=0;orthogonalLoop=1;jettySize=auto;html=1;exitX=1;exitY=0.5;exitDx=0;exitDy=0;entryX=0.5;entryY=0;entryDx=0;entryDy=0;" edge="1" parent="WIyWlLk6GJQsqaUBKTNV-1" source="WIyWlLk6GJQsqaUBKTNV-11" target="WIyWlLk6GJQsqaUBKTNV-10">
          <mxGeometry relative="1" as="geometry" />
        </mxCell>
        <mxCell id="WIyWlLk6GJQsqaUBKTNV-11" value="Zugangsdaten zurück an die Applikation senden" style="rounded=1;whiteSpace=wrap;html=1;fontSize=12;glass=0;strokeWidth=1;shadow=0;" parent="WIyWlLk6GJQsqaUBKTNV-1" vertex="1">
          <mxGeometry x="160" y="350" width="120" height="40" as="geometry" />
        </mxCell>
        <mxCell id="Fm7ijyQW3Yq9ilwutVbr-5" style="edgeStyle=orthogonalEdgeStyle;rounded=0;orthogonalLoop=1;jettySize=auto;html=1;exitX=0.5;exitY=1;exitDx=0;exitDy=0;" edge="1" parent="WIyWlLk6GJQsqaUBKTNV-1" source="WIyWlLk6GJQsqaUBKTNV-12" target="Fm7ijyQW3Yq9ilwutVbr-4">
          <mxGeometry relative="1" as="geometry" />
        </mxCell>
        <mxCell id="WIyWlLk6GJQsqaUBKTNV-12" value="Datei anlegen" style="rounded=1;whiteSpace=wrap;html=1;fontSize=12;glass=0;strokeWidth=1;shadow=0;" parent="WIyWlLk6GJQsqaUBKTNV-1" vertex="1">
          <mxGeometry x="160" y="200" width="120" height="40" as="geometry" />
        </mxCell>
        <mxCell id="Fm7ijyQW3Yq9ilwutVbr-0" value="" style="shape=waypoint;sketch=0;fillStyle=solid;size=6;pointerEvents=1;points=[];fillColor=none;resizable=0;rotatable=0;perimeter=centerPerimeter;snapToPoint=1;" vertex="1" parent="WIyWlLk6GJQsqaUBKTNV-1">
          <mxGeometry x="200" y="30" width="40" height="40" as="geometry" />
        </mxCell>
        <mxCell id="Fm7ijyQW3Yq9ilwutVbr-1" value="" style="endArrow=classic;html=1;rounded=0;" edge="1" parent="WIyWlLk6GJQsqaUBKTNV-1" source="Fm7ijyQW3Yq9ilwutVbr-0">
          <mxGeometry width="50" height="50" relative="1" as="geometry">
            <mxPoint x="330" y="140" as="sourcePoint" />
            <mxPoint x="219.9999999999999" y="90" as="targetPoint" />
          </mxGeometry>
        </mxCell>
        <mxCell id="Fm7ijyQW3Yq9ilwutVbr-2" value="nein" style="endArrow=classic;html=1;rounded=0;exitX=1;exitY=0.5;exitDx=0;exitDy=0;entryX=0;entryY=0.5;entryDx=0;entryDy=0;" edge="1" parent="WIyWlLk6GJQsqaUBKTNV-1" source="WIyWlLk6GJQsqaUBKTNV-6" target="WIyWlLk6GJQsqaUBKTNV-7">
          <mxGeometry width="50" height="50" relative="1" as="geometry">
            <mxPoint x="320" y="300" as="sourcePoint" />
            <mxPoint x="370" y="250" as="targetPoint" />
          </mxGeometry>
        </mxCell>
        <mxCell id="Fm7ijyQW3Yq9ilwutVbr-3" value="ja" style="endArrow=classic;html=1;rounded=0;exitX=0.5;exitY=1;exitDx=0;exitDy=0;entryX=0.5;entryY=0;entryDx=0;entryDy=0;" edge="1" parent="WIyWlLk6GJQsqaUBKTNV-1" source="WIyWlLk6GJQsqaUBKTNV-6" target="WIyWlLk6GJQsqaUBKTNV-12">
          <mxGeometry width="50" height="50" relative="1" as="geometry">
            <mxPoint x="200" y="210" as="sourcePoint" />
            <mxPoint x="250" y="160" as="targetPoint" />
          </mxGeometry>
        </mxCell>
        <mxCell id="Fm7ijyQW3Yq9ilwutVbr-6" style="edgeStyle=orthogonalEdgeStyle;rounded=0;orthogonalLoop=1;jettySize=auto;html=1;exitX=0.5;exitY=1;exitDx=0;exitDy=0;" edge="1" parent="WIyWlLk6GJQsqaUBKTNV-1" source="Fm7ijyQW3Yq9ilwutVbr-4" target="WIyWlLk6GJQsqaUBKTNV-11">
          <mxGeometry relative="1" as="geometry" />
        </mxCell>
        <mxCell id="Fm7ijyQW3Yq9ilwutVbr-4" value="Zugangsdaten in gehashter Form anfordern" style="rounded=1;whiteSpace=wrap;html=1;fontSize=12;glass=0;strokeWidth=1;shadow=0;" vertex="1" parent="WIyWlLk6GJQsqaUBKTNV-1">
          <mxGeometry x="160" y="270" width="120" height="40" as="geometry" />
        </mxCell>
        <mxCell id="Fm7ijyQW3Yq9ilwutVbr-14" style="edgeStyle=orthogonalEdgeStyle;rounded=0;orthogonalLoop=1;jettySize=auto;html=1;exitX=0.5;exitY=1;exitDx=0;exitDy=0;entryX=0.5;entryY=0;entryDx=0;entryDy=0;" edge="1" parent="WIyWlLk6GJQsqaUBKTNV-1" source="Fm7ijyQW3Yq9ilwutVbr-12" target="Fm7ijyQW3Yq9ilwutVbr-15">
          <mxGeometry relative="1" as="geometry" />
        </mxCell>
        <mxCell id="Fm7ijyQW3Yq9ilwutVbr-12" value="Element serializen" style="rounded=1;whiteSpace=wrap;html=1;" vertex="1" parent="WIyWlLk6GJQsqaUBKTNV-1">
          <mxGeometry x="273" y="585" width="120" height="20" as="geometry" />
        </mxCell>
        <mxCell id="Fm7ijyQW3Yq9ilwutVbr-31" style="edgeStyle=orthogonalEdgeStyle;rounded=0;orthogonalLoop=1;jettySize=auto;html=1;exitX=0.5;exitY=1;exitDx=0;exitDy=0;entryX=0;entryY=0.5;entryDx=0;entryDy=0;" edge="1" parent="WIyWlLk6GJQsqaUBKTNV-1" source="Fm7ijyQW3Yq9ilwutVbr-13" target="WIyWlLk6GJQsqaUBKTNV-10">
          <mxGeometry relative="1" as="geometry">
            <mxPoint x="170" y="420" as="targetPoint" />
            <Array as="points">
              <mxPoint x="333" y="780" />
              <mxPoint x="170" y="780" />
              <mxPoint x="170" y="495" />
            </Array>
          </mxGeometry>
        </mxCell>
        <mxCell id="Fm7ijyQW3Yq9ilwutVbr-13" value="Element verschlüsselt in Datei speichern" style="rounded=1;whiteSpace=wrap;html=1;" vertex="1" parent="WIyWlLk6GJQsqaUBKTNV-1">
          <mxGeometry x="273" y="710" width="120" height="50" as="geometry" />
        </mxCell>
        <mxCell id="Fm7ijyQW3Yq9ilwutVbr-16" style="edgeStyle=orthogonalEdgeStyle;rounded=0;orthogonalLoop=1;jettySize=auto;html=1;exitX=0.5;exitY=1;exitDx=0;exitDy=0;entryX=0.5;entryY=0;entryDx=0;entryDy=0;" edge="1" parent="WIyWlLk6GJQsqaUBKTNV-1" source="Fm7ijyQW3Yq9ilwutVbr-15" target="Fm7ijyQW3Yq9ilwutVbr-13">
          <mxGeometry relative="1" as="geometry">
            <mxPoint x="260" y="680" as="targetPoint" />
          </mxGeometry>
        </mxCell>
        <mxCell id="Fm7ijyQW3Yq9ilwutVbr-15" value="Verschlüsselungsmechanismus&amp;nbsp;&lt;br&gt;auf das Element anwenden" style="rounded=1;whiteSpace=wrap;html=1;" vertex="1" parent="WIyWlLk6GJQsqaUBKTNV-1">
          <mxGeometry x="240" y="640" width="186" height="40" as="geometry" />
        </mxCell>
        <mxCell id="Fm7ijyQW3Yq9ilwutVbr-34" style="edgeStyle=orthogonalEdgeStyle;rounded=0;orthogonalLoop=1;jettySize=auto;html=1;exitX=1;exitY=0.5;exitDx=0;exitDy=0;entryX=0;entryY=0.5;entryDx=0;entryDy=0;" edge="1" parent="WIyWlLk6GJQsqaUBKTNV-1" source="Fm7ijyQW3Yq9ilwutVbr-32" target="Fm7ijyQW3Yq9ilwutVbr-35">
          <mxGeometry relative="1" as="geometry">
            <mxPoint x="670" y="495" as="targetPoint" />
          </mxGeometry>
        </mxCell>
        <mxCell id="Fm7ijyQW3Yq9ilwutVbr-32" value="Änderungsflag zurücksetzen" style="rounded=1;whiteSpace=wrap;html=1;" vertex="1" parent="WIyWlLk6GJQsqaUBKTNV-1">
          <mxGeometry x="490" y="465" width="120" height="60" as="geometry" />
        </mxCell>
        <mxCell id="Fm7ijyQW3Yq9ilwutVbr-35" value="" style="ellipse;shape=doubleEllipse;whiteSpace=wrap;html=1;aspect=fixed;" vertex="1" parent="WIyWlLk6GJQsqaUBKTNV-1">
          <mxGeometry x="690" y="455" width="80" height="80" as="geometry" />
        </mxCell>
      </root>
    </mxGraphModel>
  </diagram>
</mxfile>
